<?xml version="1.0" encoding="UTF-8"?><svg id="_レイヤー_1" xmlns="http://www.w3.org/2000/svg" viewBox="0 0 500 500"><defs><style>.cls-1{fill:#fff;}</style></defs><circle cx="250" cy="250" r="242.34"/><path class="cls-1" d="M160.29,188.76c-3.31-2.65-4.64-4.64-4.64-8.61-.66-4.64-.66-8.61,1.33-11.93,2.65-3.31,4.64-4.64,8.61-4.64,4.64-.66,8.61-1.33,11.93,1.32,3.31,1.99,4.64,4.64,4.64,8.61.66,4.64,1.33,8.61-1.32,11.93-1.99,3.31-4.64,4.64-8.61,4.64-4.64.66-8.61.66-11.93-1.33ZM193.43,122.5c-3.31-2.65-4.64-4.64-4.64-8.61-.66-4.64-.66-8.61,1.33-11.93,2.65-3.31,4.64-4.64,8.61-4.64,4.64-.66,8.61-1.33,11.93,1.33,3.31,1.99,4.64,4.64,4.64,8.61.66,4.64,1.33,8.61-1.33,11.93-1.99,3.31-4.64,4.64-8.61,4.64-4.64.66-8.61.66-11.93-1.33ZM193.43,155.63c-3.31-2.65-4.64-4.64-4.64-8.61-.66-4.64-.66-8.61,1.33-11.93,2.65-3.31,4.64-4.64,8.61-4.64,4.64-.66,8.61-1.33,11.93,1.33,3.31,1.99,4.64,4.64,4.64,8.61.66,4.64,1.33,8.61-1.33,11.93-1.99,3.31-4.64,4.64-8.61,4.64-4.64.66-8.61.66-11.93-1.32ZM193.43,188.76c-3.31-2.65-4.64-4.64-4.64-8.61-.66-4.64-.66-8.61,1.33-11.93,2.65-3.31,4.64-4.64,8.61-4.64,4.64-.66,8.61-1.33,11.93,1.32,3.31,1.99,4.64,4.64,4.64,8.61.66,4.64,1.33,8.61-1.33,11.93-1.99,3.31-4.64,4.64-8.61,4.64-4.64.66-8.61.66-11.93-1.33ZM193.43,221.9c-3.31-2.65-4.64-4.64-4.64-8.61-.66-4.64-.66-8.61,1.33-11.93,2.65-3.31,4.64-4.64,8.61-4.64,4.64-.66,8.61-1.33,11.93,1.33,3.31,1.99,4.64,4.64,4.64,8.61.66,4.64,1.33,8.61-1.33,11.93-1.99,3.31-4.64,4.64-8.61,4.64-4.64.66-8.61.66-11.93-1.33ZM193.43,255.03c-3.31-2.65-4.64-4.64-4.64-8.61-.66-4.64-.66-8.61,1.33-11.93,2.65-3.31,4.64-4.64,8.61-4.64,4.64-.66,8.61-1.33,11.93,1.33,3.31,1.99,4.64,4.64,4.64,8.61.66,4.64,1.33,8.61-1.33,11.93-1.99,3.31-4.64,4.64-8.61,4.64-4.64.66-8.61.66-11.93-1.32ZM193.43,288.16c-3.31-2.65-4.64-4.64-4.64-8.61-.66-4.64-.66-8.61,1.33-11.93,2.65-3.31,4.64-4.64,8.61-4.64,4.64-.66,8.61-1.32,11.93,1.33,3.31,1.99,4.64,4.64,4.64,8.61.66,4.64,1.33,8.61-1.33,11.93-1.99,3.31-4.64,4.64-8.61,4.64-4.64.66-8.61.66-11.93-1.32ZM193.43,321.29c-3.31-2.65-4.64-4.64-4.64-8.61-.66-4.64-.66-8.61,1.33-11.93,2.65-3.31,4.64-4.64,8.61-4.64,4.64-.66,8.61-1.32,11.93,1.33,3.31,1.99,4.64,4.64,4.64,8.61.66,4.64,1.33,8.61-1.33,11.93-1.99,3.31-4.64,4.64-8.61,4.64-4.64.66-8.61.66-11.93-1.33ZM193.43,354.43c-3.31-2.65-4.64-4.64-4.64-8.61-.66-4.64-.66-8.61,1.33-11.93,2.65-3.31,4.64-4.64,8.61-4.64,4.64-.66,8.61-1.33,11.93,1.32,3.31,1.99,4.64,4.64,4.64,8.61.66,4.64,1.33,8.61-1.33,11.93-1.99,3.31-4.64,4.64-8.61,4.64-4.64.66-8.61.66-11.93-1.33ZM193.43,387.56c-3.31-2.65-4.64-4.64-4.64-8.61-.66-4.64-.66-8.61,1.33-11.93,2.65-3.31,4.64-4.64,8.61-4.64,4.64-.66,8.61-1.33,11.93,1.32,3.31,1.99,4.64,4.64,4.64,8.61.66,4.64,1.33,8.61-1.33,11.93-1.99,3.31-4.64,4.64-8.61,4.64-4.64.66-8.61.66-11.93-1.33ZM226.56,89.37c-3.31-2.65-4.64-4.64-4.64-8.61-.66-4.64-.66-8.61,1.33-11.93,2.65-3.31,4.64-4.64,8.61-4.64,4.64-.66,8.61-1.33,11.93,1.32,3.31,1.99,4.64,4.64,4.64,8.61.66,4.64,1.32,8.61-1.33,11.93-1.99,3.31-4.64,4.64-8.61,4.64-4.64.66-8.61.66-11.93-1.33ZM226.56,122.5c-3.31-2.65-4.64-4.64-4.64-8.61-.66-4.64-.66-8.61,1.33-11.93,2.65-3.31,4.64-4.64,8.61-4.64,4.64-.66,8.61-1.33,11.93,1.33,3.31,1.99,4.64,4.64,4.64,8.61.66,4.64,1.32,8.61-1.33,11.93-1.99,3.31-4.64,4.64-8.61,4.64-4.64.66-8.61.66-11.93-1.33ZM226.56,155.63c-3.31-2.65-4.64-4.64-4.64-8.61-.66-4.64-.66-8.61,1.33-11.93,2.65-3.31,4.64-4.64,8.61-4.64,4.64-.66,8.61-1.33,11.93,1.33,3.31,1.99,4.64,4.64,4.64,8.61.66,4.64,1.32,8.61-1.33,11.93-1.99,3.31-4.64,4.64-8.61,4.64-4.64.66-8.61.66-11.93-1.32ZM226.56,188.76c-3.31-2.65-4.64-4.64-4.64-8.61-.66-4.64-.66-8.61,1.33-11.93,2.65-3.31,4.64-4.64,8.61-4.64,4.64-.66,8.61-1.33,11.93,1.32,3.31,1.99,4.64,4.64,4.64,8.61.66,4.64,1.32,8.61-1.33,11.93-1.99,3.31-4.64,4.64-8.61,4.64-4.64.66-8.61.66-11.93-1.33ZM226.56,221.9c-3.31-2.65-4.64-4.64-4.64-8.61-.66-4.64-.66-8.61,1.33-11.93,2.65-3.31,4.64-4.64,8.61-4.64,4.64-.66,8.61-1.33,11.93,1.33,3.31,1.99,4.64,4.64,4.64,8.61.66,4.64,1.32,8.61-1.33,11.93-1.99,3.31-4.64,4.64-8.61,4.64-4.64.66-8.61.66-11.93-1.33ZM226.56,255.03c-3.31-2.65-4.64-4.64-4.64-8.61-.66-4.64-.66-8.61,1.33-11.93,2.65-3.31,4.64-4.64,8.61-4.64,4.64-.66,8.61-1.33,11.93,1.33,3.31,1.99,4.64,4.64,4.64,8.61.66,4.64,1.32,8.61-1.33,11.93-1.99,3.31-4.64,4.64-8.61,4.64-4.64.66-8.61.66-11.93-1.32ZM226.56,288.16c-3.31-2.65-4.64-4.64-4.64-8.61-.66-4.64-.66-8.61,1.33-11.93,2.65-3.31,4.64-4.64,8.61-4.64,4.64-.66,8.61-1.32,11.93,1.33,3.31,1.99,4.64,4.64,4.64,8.61.66,4.64,1.32,8.61-1.33,11.93-1.99,3.31-4.64,4.64-8.61,4.64-4.64.66-8.61.66-11.93-1.32ZM226.56,321.29c-3.31-2.65-4.64-4.64-4.64-8.61-.66-4.64-.66-8.61,1.33-11.93,2.65-3.31,4.64-4.64,8.61-4.64,4.64-.66,8.61-1.32,11.93,1.33,3.31,1.99,4.64,4.64,4.64,8.61.66,4.64,1.32,8.61-1.33,11.93-1.99,3.31-4.64,4.64-8.61,4.64-4.64.66-8.61.66-11.93-1.33ZM226.56,354.43c-3.31-2.65-4.64-4.64-4.64-8.61-.66-4.64-.66-8.61,1.33-11.93,2.65-3.31,4.64-4.64,8.61-4.64,4.64-.66,8.61-1.33,11.93,1.32,3.31,1.99,4.64,4.64,4.64,8.61.66,4.64,1.32,8.61-1.33,11.93-1.99,3.31-4.64,4.64-8.61,4.64-4.64.66-8.61.66-11.93-1.33ZM226.56,387.56c-3.31-2.65-4.64-4.64-4.64-8.61-.66-4.64-.66-8.61,1.33-11.93,2.65-3.31,4.64-4.64,8.61-4.64,4.64-.66,8.61-1.33,11.93,1.32,3.31,1.99,4.64,4.64,4.64,8.61.66,4.64,1.32,8.61-1.33,11.93-1.99,3.31-4.64,4.64-8.61,4.64-4.64.66-8.61.66-11.93-1.33ZM226.56,420.69c-3.31-2.65-4.64-4.64-4.64-8.61-.66-4.64-.66-8.61,1.33-11.93,2.65-3.31,4.64-4.64,8.61-4.64,4.64-.66,8.61-1.33,11.93,1.32,3.31,1.99,4.64,4.64,4.64,8.61.66,4.64,1.32,8.61-1.33,11.93-1.99,3.31-4.64,4.64-8.61,4.64-4.64.66-8.61.66-11.93-1.32ZM259.69,188.76c-3.31-2.65-4.64-4.64-4.64-8.61-.66-4.64-.66-8.61,1.32-11.93,2.65-3.31,4.64-4.64,8.61-4.64,4.64-.66,8.61-1.33,11.93,1.32,3.31,1.99,4.64,4.64,4.64,8.61.66,4.64,1.32,8.61-1.33,11.93-1.99,3.31-4.64,4.64-8.61,4.64-4.64.66-8.61.66-11.93-1.33ZM259.69,420.69c-3.31-2.65-4.64-4.64-4.64-8.61-.66-4.64-.66-8.61,1.32-11.93,2.65-3.31,4.64-4.64,8.61-4.64,4.64-.66,8.61-1.33,11.93,1.32,3.31,1.99,4.64,4.64,4.64,8.61.66,4.64,1.32,8.61-1.33,11.93-1.99,3.31-4.64,4.64-8.61,4.64-4.64.66-8.61.66-11.93-1.32ZM292.82,188.76c-3.31-2.65-4.64-4.64-4.64-8.61-.66-4.64-.66-8.61,1.32-11.93,2.65-3.31,4.64-4.64,8.61-4.64,4.64-.66,8.61-1.33,11.93,1.32,3.31,1.99,4.64,4.64,4.64,8.61.66,4.64,1.32,8.61-1.33,11.93-1.99,3.31-4.64,4.64-8.61,4.64-4.64.66-8.61.66-11.93-1.33ZM292.82,420.69c-3.31-2.65-4.64-4.64-4.64-8.61-.66-4.64-.66-8.61,1.32-11.93,2.65-3.31,4.64-4.64,8.61-4.64,4.64-.66,8.61-1.33,11.93,1.32,3.31,1.99,4.64,4.64,4.64,8.61.66,4.64,1.32,8.61-1.33,11.93-1.99,3.31-4.64,4.64-8.61,4.64-4.64.66-8.61.66-11.93-1.32Z"/></svg>