<?xml version="1.0" encoding="UTF-8"?><svg id="_レイヤー_1" xmlns="http://www.w3.org/2000/svg" viewBox="0 0 500 500"><defs><style>.cls-1{fill:#fff;}</style></defs><circle cx="250" cy="260.01" r="212.57"/><path class="cls-1" d="M171.31,206.29c-2.91-2.33-4.07-4.07-4.07-7.56-.58-4.07-.58-7.56,1.16-10.46,2.33-2.91,4.07-4.07,7.56-4.07,4.07-.58,7.56-1.16,10.46,1.16,2.91,1.74,4.07,4.07,4.07,7.56.58,4.07,1.16,7.56-1.16,10.46-1.74,2.91-4.07,4.07-7.56,4.07-4.07.58-7.56.58-10.46-1.16ZM200.38,148.17c-2.91-2.32-4.07-4.07-4.07-7.56-.58-4.07-.58-7.56,1.16-10.46,2.33-2.91,4.07-4.07,7.56-4.07,4.07-.58,7.56-1.16,10.46,1.16,2.91,1.74,4.07,4.07,4.07,7.56.58,4.07,1.16,7.56-1.16,10.46-1.74,2.91-4.07,4.07-7.56,4.07-4.07.58-7.56.58-10.46-1.16ZM200.38,177.23c-2.91-2.33-4.07-4.07-4.07-7.56-.58-4.07-.58-7.56,1.16-10.46,2.33-2.91,4.07-4.07,7.56-4.07,4.07-.58,7.56-1.16,10.46,1.16,2.91,1.74,4.07,4.07,4.07,7.56.58,4.07,1.16,7.56-1.16,10.46-1.74,2.91-4.07,4.07-7.56,4.07-4.07.58-7.56.58-10.46-1.16ZM200.38,206.29c-2.91-2.33-4.07-4.07-4.07-7.56-.58-4.07-.58-7.56,1.16-10.46,2.33-2.91,4.07-4.07,7.56-4.07,4.07-.58,7.56-1.16,10.46,1.16,2.91,1.74,4.07,4.07,4.07,7.56.58,4.07,1.16,7.56-1.16,10.46-1.74,2.91-4.07,4.07-7.56,4.07-4.07.58-7.56.58-10.46-1.16ZM200.38,235.35c-2.91-2.32-4.07-4.07-4.07-7.56-.58-4.07-.58-7.56,1.16-10.46,2.33-2.91,4.07-4.07,7.56-4.07,4.07-.58,7.56-1.16,10.46,1.16,2.91,1.74,4.07,4.07,4.07,7.56.58,4.07,1.16,7.56-1.16,10.46-1.74,2.91-4.07,4.07-7.56,4.07-4.07.58-7.56.58-10.46-1.16ZM200.38,264.42c-2.91-2.33-4.07-4.07-4.07-7.56-.58-4.07-.58-7.56,1.16-10.46,2.33-2.91,4.07-4.07,7.56-4.07,4.07-.58,7.56-1.16,10.46,1.16,2.91,1.74,4.07,4.07,4.07,7.56.58,4.07,1.16,7.56-1.16,10.46-1.74,2.91-4.07,4.07-7.56,4.07-4.07.58-7.56.58-10.46-1.16ZM200.38,293.48c-2.91-2.33-4.07-4.07-4.07-7.56-.58-4.07-.58-7.56,1.16-10.46,2.33-2.91,4.07-4.07,7.56-4.07,4.07-.58,7.56-1.16,10.46,1.16,2.91,1.74,4.07,4.07,4.07,7.56.58,4.07,1.16,7.56-1.16,10.46-1.74,2.91-4.07,4.07-7.56,4.07-4.07.58-7.56.58-10.46-1.16ZM200.38,322.54c-2.91-2.33-4.07-4.07-4.07-7.56-.58-4.07-.58-7.56,1.16-10.46,2.33-2.91,4.07-4.07,7.56-4.07,4.07-.58,7.56-1.16,10.46,1.16,2.91,1.74,4.07,4.07,4.07,7.56.58,4.07,1.16,7.56-1.16,10.46-1.74,2.91-4.07,4.07-7.56,4.07-4.07.58-7.56.58-10.46-1.16ZM200.38,351.61c-2.91-2.33-4.07-4.07-4.07-7.56-.58-4.07-.58-7.56,1.16-10.46,2.33-2.91,4.07-4.07,7.56-4.07,4.07-.58,7.56-1.16,10.46,1.16,2.91,1.74,4.07,4.07,4.07,7.56.58,4.07,1.16,7.56-1.16,10.46-1.74,2.91-4.07,4.07-7.56,4.07-4.07.58-7.56.58-10.46-1.16ZM200.38,380.67c-2.91-2.32-4.07-4.07-4.07-7.56-.58-4.07-.58-7.56,1.16-10.46,2.33-2.91,4.07-4.07,7.56-4.07,4.07-.58,7.56-1.16,10.46,1.16,2.91,1.74,4.07,4.07,4.07,7.56.58,4.07,1.16,7.56-1.16,10.46-1.74,2.91-4.07,4.07-7.56,4.07-4.07.58-7.56.58-10.46-1.16ZM229.44,119.1c-2.91-2.33-4.07-4.07-4.07-7.56-.58-4.07-.58-7.56,1.16-10.46,2.32-2.91,4.07-4.07,7.56-4.07,4.07-.58,7.56-1.16,10.46,1.16,2.91,1.74,4.07,4.07,4.07,7.56.58,4.07,1.16,7.56-1.16,10.46-1.74,2.91-4.07,4.07-7.56,4.07-4.07.58-7.56.58-10.46-1.16ZM229.44,148.17c-2.91-2.32-4.07-4.07-4.07-7.56-.58-4.07-.58-7.56,1.16-10.46,2.32-2.91,4.07-4.07,7.56-4.07,4.07-.58,7.56-1.16,10.46,1.16,2.91,1.74,4.07,4.07,4.07,7.56.58,4.07,1.16,7.56-1.16,10.46-1.74,2.91-4.07,4.07-7.56,4.07-4.07.58-7.56.58-10.46-1.16ZM229.44,177.23c-2.91-2.33-4.07-4.07-4.07-7.56-.58-4.07-.58-7.56,1.16-10.46,2.32-2.91,4.07-4.07,7.56-4.07,4.07-.58,7.56-1.16,10.46,1.16,2.91,1.74,4.07,4.07,4.07,7.56.58,4.07,1.16,7.56-1.16,10.46-1.74,2.91-4.07,4.07-7.56,4.07-4.07.58-7.56.58-10.46-1.16ZM229.44,206.29c-2.91-2.33-4.07-4.07-4.07-7.56-.58-4.07-.58-7.56,1.16-10.46,2.32-2.91,4.07-4.07,7.56-4.07,4.07-.58,7.56-1.16,10.46,1.16,2.91,1.74,4.07,4.07,4.07,7.56.58,4.07,1.16,7.56-1.16,10.46-1.74,2.91-4.07,4.07-7.56,4.07-4.07.58-7.56.58-10.46-1.16ZM229.44,235.35c-2.91-2.32-4.07-4.07-4.07-7.56-.58-4.07-.58-7.56,1.16-10.46,2.32-2.91,4.07-4.07,7.56-4.07,4.07-.58,7.56-1.16,10.46,1.16,2.91,1.74,4.07,4.07,4.07,7.56.58,4.07,1.16,7.56-1.16,10.46-1.74,2.91-4.07,4.07-7.56,4.07-4.07.58-7.56.58-10.46-1.16ZM229.44,264.42c-2.91-2.33-4.07-4.07-4.07-7.56-.58-4.07-.58-7.56,1.16-10.46,2.32-2.91,4.07-4.07,7.56-4.07,4.07-.58,7.56-1.16,10.46,1.16,2.91,1.74,4.07,4.07,4.07,7.56.58,4.07,1.16,7.56-1.16,10.46-1.74,2.91-4.07,4.07-7.56,4.07-4.07.58-7.56.58-10.46-1.16ZM229.44,293.48c-2.91-2.33-4.07-4.07-4.07-7.56-.58-4.07-.58-7.56,1.16-10.46,2.32-2.91,4.07-4.07,7.56-4.07,4.07-.58,7.56-1.16,10.46,1.16,2.91,1.74,4.07,4.07,4.07,7.56.58,4.07,1.16,7.56-1.16,10.46-1.74,2.91-4.07,4.07-7.56,4.07-4.07.58-7.56.58-10.46-1.16ZM229.44,322.54c-2.91-2.33-4.07-4.07-4.07-7.56-.58-4.07-.58-7.56,1.16-10.46,2.32-2.91,4.07-4.07,7.56-4.07,4.07-.58,7.56-1.16,10.46,1.16,2.91,1.74,4.07,4.07,4.07,7.56.58,4.07,1.16,7.56-1.16,10.46-1.74,2.91-4.07,4.07-7.56,4.07-4.07.58-7.56.58-10.46-1.16ZM229.44,351.61c-2.91-2.33-4.07-4.07-4.07-7.56-.58-4.07-.58-7.56,1.16-10.46,2.32-2.91,4.07-4.07,7.56-4.07,4.07-.58,7.56-1.16,10.46,1.16,2.91,1.74,4.07,4.07,4.07,7.56.58,4.07,1.16,7.56-1.16,10.46-1.74,2.91-4.07,4.07-7.56,4.07-4.07.58-7.56.58-10.46-1.16ZM229.44,380.67c-2.91-2.32-4.07-4.07-4.07-7.56-.58-4.07-.58-7.56,1.16-10.46,2.32-2.91,4.07-4.07,7.56-4.07,4.07-.58,7.56-1.16,10.46,1.16,2.91,1.74,4.07,4.07,4.07,7.56.58,4.07,1.16,7.56-1.16,10.46-1.74,2.91-4.07,4.07-7.56,4.07-4.07.58-7.56.58-10.46-1.16ZM229.44,409.73c-2.91-2.33-4.07-4.07-4.07-7.56-.58-4.07-.58-7.56,1.16-10.46,2.32-2.91,4.07-4.07,7.56-4.07,4.07-.58,7.56-1.16,10.46,1.16,2.91,1.74,4.07,4.07,4.07,7.56.58,4.07,1.16,7.56-1.16,10.46-1.74,2.91-4.07,4.07-7.56,4.07-4.07.58-7.56.58-10.46-1.16ZM258.5,206.29c-2.91-2.33-4.07-4.07-4.07-7.56-.58-4.07-.58-7.56,1.16-10.46,2.33-2.91,4.07-4.07,7.56-4.07,4.07-.58,7.56-1.16,10.46,1.16,2.91,1.74,4.07,4.07,4.07,7.56.58,4.07,1.16,7.56-1.16,10.46-1.74,2.91-4.07,4.07-7.56,4.07-4.07.58-7.56.58-10.46-1.16ZM258.5,409.73c-2.91-2.33-4.07-4.07-4.07-7.56-.58-4.07-.58-7.56,1.16-10.46,2.33-2.91,4.07-4.07,7.56-4.07,4.07-.58,7.56-1.16,10.46,1.16,2.91,1.74,4.07,4.07,4.07,7.56.58,4.07,1.16,7.56-1.16,10.46-1.74,2.91-4.07,4.07-7.56,4.07-4.07.58-7.56.58-10.46-1.16ZM287.56,206.29c-2.91-2.33-4.07-4.07-4.07-7.56-.58-4.07-.58-7.56,1.16-10.46,2.33-2.91,4.07-4.07,7.56-4.07,4.07-.58,7.56-1.16,10.46,1.16,2.91,1.74,4.07,4.07,4.07,7.56.58,4.07,1.16,7.56-1.16,10.46-1.74,2.91-4.07,4.07-7.56,4.07-4.07.58-7.56.58-10.46-1.16ZM287.56,409.73c-2.91-2.33-4.07-4.07-4.07-7.56-.58-4.07-.58-7.56,1.16-10.46,2.33-2.91,4.07-4.07,7.56-4.07,4.07-.58,7.56-1.16,10.46,1.16,2.91,1.74,4.07,4.07,4.07,7.56.58,4.07,1.16,7.56-1.16,10.46-1.74,2.91-4.07,4.07-7.56,4.07-4.07.58-7.56.58-10.46-1.16Z"/></svg>